<?xml version="1.0" encoding="UTF-8" standalone="no"?>
<!-- Created with Inkscape (http://www.inkscape.org/) -->

<svg
   width="89mm"
   height="89mm"
   viewBox="0 0 89 89"
   version="1.1"
   id="svg1"
   xml:space="preserve"
   xmlns="http://www.w3.org/2000/svg"
   xmlns:svg="http://www.w3.org/2000/svg"><defs
     id="defs1" /><g
     id="layer1"
     transform="translate(-60.50001,-104)"><g
       id="g20"><path
         style="fill:#ffffff;stroke-linecap:square;paint-order:markers stroke fill"
         d="m 105,104 c -24.493764,0 -44.5,20.00624 -44.5,44.5 V 193 H 105 c 24.49376,0 44.5,-20.00624 44.5,-44.5 V 104 Z m 0,14 h 30.5 v 30.5 c 0,16.9276 -13.5724,30.5 -30.5,30.5 H 74.5 V 148.5 C 74.5,131.5724 88.072397,118 105,118 Z"
         id="rect1"
         transform="matrix(-1,0,0,1,210.00001,0)" /><path
         id="rect1-0"
         style="display:inline;fill:#a9ee64;fill-opacity:1;stroke:none;stroke-width:7;stroke-linecap:square;stroke-dasharray:none;stroke-opacity:1;paint-order:markers stroke fill"
         d="m 105.00001,111 h 37.5 v 37.5 A 37.50001,37.50001 135 0 1 105,186.00001 H 67.5 v -37.5 A 37.50001,37.50001 135 0 1 105.00001,111 Z"
         transform="matrix(-1,0,0,1,210.00001,0)" /><path
         d="M 142.49983,186.00002 67.49975,110.99994 v 37.50004 a 37.50001,37.50001 0 0 0 37.50004,37.50004 z"
         style="display:inline;fill:#12c979;fill-opacity:1;stroke-width:7;stroke-linecap:square;paint-order:markers stroke fill"
         id="path5" /><g
         id="g5"
         clip-path="none"
         mask="none"><path
           d="m 142.1591,143.48339 a 37.50001,37.50001 0 0 0 -5.21312,-14.58567 l -25.77414,25.77413 9.89914,9.89966 z"
           style="baseline-shift:baseline;display:inline;overflow:visible;vector-effect:none;fill:#6fe658;paint-order:markers stroke fill;enable-background:accumulate;stop-color:#000000;stop-opacity:1"
           id="path40" /><path
           d="m 142.50016,162.94112 v -14.44098 a 37.50001,37.50001 0 0 0 -0.34106,-5.01675 l -21.08812,21.08812 9.89966,9.89913 z"
           style="baseline-shift:baseline;display:inline;overflow:visible;vector-effect:none;fill:#75bd30;paint-order:markers stroke fill;enable-background:accumulate;stop-color:#000000;stop-opacity:1"
           id="path41" /><path
           d="m 100.12291,185.51958 20.94807,-20.94807 -9.89914,-9.89966 -25.703853,25.70386 a 37.50001,37.50001 0 0 0 14.654923,5.14387 z"
           style="baseline-shift:baseline;display:inline;overflow:visible;vector-effect:none;fill:#18e8c7;paint-order:markers stroke fill;enable-background:accumulate;stop-color:#000000;stop-opacity:1"
           id="path42" /><path
           d="m 119.44111,186.00017 11.52953,-11.52953 -9.89966,-9.89913 -20.94807,20.94807 a 37.50001,37.50001 0 0 0 4.87722,0.48059 z"
           style="baseline-shift:baseline;display:inline;overflow:visible;vector-effect:none;fill:#04924e;paint-order:markers stroke fill;enable-background:accumulate;stop-color:#000000;stop-opacity:1"
           id="path43" /></g><path
         id="_x3C_Path_x3E_-7"
         class="st2"
         d="m 220.08894,410.51203 v 125.66855 c 0.13228,29.23465 23.67872,52.78109 52.91337,52.91339 h 79.37009 c 29.23463,-0.1323 52.7811,-23.67874 52.91339,-52.91339 v -66.14171 c -0.13229,-21.82678 -17.85828,-39.55276 -39.68505,-39.68503 -9.78896,0 -19.18111,3.70393 -26.4567,10.45039 -7.27558,-6.61418 -16.6677,-10.31812 -26.45667,-10.45039 -21.82677,0.13227 -39.55276,17.85825 -39.68506,39.68503 v 66.14171 h 26.4567 v -66.14171 c 0,-7.27559 5.95276,-13.22836 13.22836,-13.22836 7.27557,0 13.22834,5.95277 13.22834,13.22836 v 66.14171 h 26.45669 v -66.14171 c 0,-7.27559 5.95276,-13.22836 13.22834,-13.22836 7.27559,0 13.22834,5.95277 13.22834,13.22836 v 66.14171 c 0.13229,14.55119 -11.64094,26.32442 -26.05983,26.4567 h -0.39685 -79.37009 c -14.55117,0.13228 -26.32439,-11.64094 -26.45669,-26.05983 v -0.39687 -125.66855 z"
         style="display:inline;fill:#f8f8f8;stroke:none;stroke-width:13.2283;stroke-dasharray:none;stroke-opacity:1"
         transform="matrix(0.26458333,0,0,0.26458333,22.268137,15.385551)" /><g
         id="g19"
         style="display:inline"><path
           id="path19"
           style="fill:#069b55;fill-opacity:1;paint-order:markers stroke fill"
           d="m 78.750232,122.25042 v 35.00355 0.004 c 0.03923,8.6704 7.071807,15.70295 15.742192,15.74219 h 0.0036 21.008016 0.004 c 3.89047,-0.0176 7.44399,-1.45097 10.19111,-3.8008 l -1.22834,-1.22835 c -2.42644,2.03307 -5.5503,3.26339 -8.97103,3.27887 H 94.500175 c -7.735001,-0.035 -13.965179,-6.26517 -14.000179,-14.00018 v -33.24964 z m 8.749853,8.74985 v 26.24956 0.10542 c 0.035,3.815 3.150093,6.92967 7.00009,6.89467 h 20.999755 0.1049 c 1.44656,-0.0133 2.79138,-0.47068 3.90312,-1.24178 l -1.27176,-1.27176 c -0.77562,0.4671 -1.67377,0.75434 -2.64635,0.76326 h -0.0899 -21.007506 -0.0083 c -2.897594,0.0263 -5.20796,-2.28862 -5.234306,-5.15989 v -0.0899 -24.49979 z m 5.673556,5.67356 c -0.261058,0.98215 -0.417321,2.0058 -0.423747,3.06596 v 0.004 19.25619 h 10.500136 v -12.24989 l -1.75028,-1.75029 v 12.2499 H 94.500175 V 139.75 c 0.0033,-0.54714 0.06085,-1.08045 0.144694,-1.60507 z m 13.576429,13.57643 v 8.74985 h 8.74986 l -1.75028,-1.75028 h -5.24981 v -5.24981 z" /><path
           id="path15"
           style="display:inline;fill:#7ec538;fill-opacity:1;paint-order:markers stroke fill"
           d="m 78.750232,122.25042 1.74977,1.74977 h 7.000083 v 7.00008 l 1.749764,1.74977 v -10.49962 z m 26.240258,5.24877 c -5.656511,0.0343 -10.423968,3.93435 -11.816849,9.17464 l 1.471228,1.47123 c 0.8011,-5.01277 5.127067,-8.86338 10.354921,-8.89507 2.59,0.035 5.07509,1.01521 7.00009,2.76521 1.925,-1.785 4.41009,-2.76521 7.00009,-2.76521 5.775,0.035 10.46514,4.72514 10.50014,10.50014 v 17.4997 c -0.0195,4.31427 -1.96891,8.15719 -5.02915,10.72131 l 1.22834,1.22835 c 3.37519,-2.88706 5.52946,-7.16146 5.55109,-11.94139 v -0.004 -17.51005 -0.004 c -0.0407,-6.71668 -5.5234,-12.20041 -12.24008,-12.24112 h -0.004 -0.006 c -2.55839,0 -4.94563,0.97939 -7.00371,2.48512 -2.05212,-1.47853 -4.42726,-2.45072 -6.9727,-2.48512 h -0.0176 z m 0.009,8.75089 c -1.925,0 -3.50004,1.57505 -3.50004,3.50005 v 5.2498 l 1.75028,1.75029 v -7.00009 c 0,-0.97045 0.77931,-1.75028 1.74976,-1.75028 0.97045,0 1.75028,0.77983 1.75028,1.75028 v 10.50013 l 1.74977,1.74976 v -12.24989 c 0,-1.925 -1.57505,-3.50005 -3.50005,-3.50005 z m 14.00018,0 c -1.925,0 -3.50004,1.57505 -3.50004,3.50005 v 17.4997 h -1.75028 l 1.75028,1.75028 h 1.75028 v -19.24998 c 0,-0.97045 0.77931,-1.75028 1.74976,-1.75028 0.97045,0 1.75028,0.77983 1.75028,1.75028 v 17.50745 0.008 c 0.0174,1.9161 -0.99987,3.55916 -2.51406,4.47104 l 1.27176,1.27176 c 1.82025,-1.26252 3.0138,-3.36813 2.99207,-5.75831 v -17.4997 c 0,-1.925 -1.57505,-3.50005 -3.50005,-3.50005 z" /></g></g></g><style
     type="text/css"
     id="style1">
	.st0{fill:#FFFFFF;}
	.st1{fill:#69B53F;}
	.st2{fill:#F8F8F8;}
</style></svg>
