<?xml version="1.0" encoding="UTF-8" standalone="no"?>
<svg
   width="666.66797"
   height="666.66797"
   viewBox="0 0 20.000039 20.000039"
   version="1.1"
   id="svg1"
   sodipodi:docname="select-all.svg"
   xmlns:inkscape="http://www.inkscape.org/namespaces/inkscape"
   xmlns:sodipodi="http://sodipodi.sourceforge.net/DTD/sodipodi-0.dtd"
   xmlns="http://www.w3.org/2000/svg"
   xmlns:svg="http://www.w3.org/2000/svg">
  <defs
     id="defs1" />
  <sodipodi:namedview
     id="namedview1"
     pagecolor="#ffffff"
     bordercolor="#000000"
     borderopacity="0.25"
     inkscape:showpageshadow="2"
     inkscape:pageopacity="0.0"
     inkscape:pagecheckerboard="0"
     inkscape:deskcolor="#d1d1d1">
    <inkscape:page
       x="0"
       y="0"
       width="20.000038"
       height="20.000038"
       id="page2"
       margin="0"
       bleed="0" />
  </sodipodi:namedview>
  <!-- Uploaded to: SVG Repo, www.svgrepo.com, Generator: SVG Repo Mixer Tools -->
  <title
     id="title1">ic_fluent_select_all_24_regular</title>
  <desc
     id="desc1">Created with Sketch.</desc>
  <g
     inkscape:groupmode="layer"
     id="layer1"
     inkscape:label="Download-All"
     transform="translate(-1.9999804,-1.9999804)">
    <path
       id="🎨-Color"
       d="m 4.2499805,1.9999805 c -1.2426407,0 -2.25,1.0073593 -2.25,2.25 V 17.246836 c 0,1.242641 1.0073593,2.25 2.25,2.25 H 17.246836 c 1.242641,0 2.25,-1.007359 2.25,-2.25 V 4.2499805 c 0,-1.2426407 -1.007359,-2.25 -2.25,-2.25 z m 0,1.5 H 17.246836 c 0.414214,0 0.75,0.3357864 0.75,0.75 V 17.246836 c 0,0.414214 -0.335786,0.75 -0.75,0.75 H 4.2499805 c -0.4142136,0 -0.75,-0.335786 -0.75,-0.75 V 4.2499805 c 0,-0.4142136 0.3357864,-0.75 0.75,-0.75 z M 8.9392383,4.3141992 V 5.1817383 H 12.557578 V 4.3141992 Z m 11.5569137,1.3125 -1.75e-4,2.0723438 0.004,0.050976 v 9.999961 c 0,1.518783 -1.231257,2.75004 -2.75004,2.75004 l -10.0260347,-4.69e-4 -2.0972461,-0.0034 c 0.3077952,0.875891 1.1422281,1.503868 2.1233203,1.503868 H 17.74998 c 2.34721,0 4.25004,-1.90283 4.25004,-4.25004 V 7.7500195 c 0,-0.9810922 -0.627977,-1.8155251 -1.503868,-2.1233203 z M 8.9392383,6.0492773 V 6.916875 H 12.557578 V 6.0492773 Z m 0,1.7351954 V 9.097207 12.235312 H 5.8011328 l 4.9472462,4.947305 4.947305,-4.947305 H 12.557578 V 9.0972656 7.7844727 Z"
       style="fill:#000000;fill-opacity:1"
       inkscape:label="path" />
  </g>
</svg>
